<?xml version="1.0" encoding="utf-8"?>
<!-- Generator: Adobe Illustrator 26.3.1, SVG Export Plug-In . SVG Version: 6.00 Build 0)  -->
<svg version="1.1" id="Layer_1" xmlns="http://www.w3.org/2000/svg" xmlns:xlink="http://www.w3.org/1999/xlink" x="0px" y="0px"
	 viewBox="0 0 381 33" style="enable-background:new 0 0 381 33;" xml:space="preserve">
<style type="text/css">
	.st0{fill:#FFFFFF;}
</style>
<g id="Page-1">
	<g id="utd-mono-wordmark-inline-v2">
		<path id="Shape" class="st0" d="M32.2,4.1l-0.7,0.2c-0.3-0.7-1.1-1.1-1.8-1h-10v27c0,1.1,0.5,1.5,1.2,1.5l0.1,0.5h-6.4l0.1-0.5
			c0.6,0,1.2-0.4,1.2-1.5v-27H6.1c-0.8-0.1-1.5,0.3-1.8,1L3.6,4.1l1-4.1c0.5,0.1,1.1,0.2,1.6,0.1H30c0.4,0,0.9,0,1.3-0.1L32.2,4.1z
			 M28.7,28.5c-2.8,0-6.2-0.1-7-0.2v-0.6c0.5,0.1,1-0.3,1.1-0.9v-0.1V7.3c0-0.6-0.4-1-0.9-1.1c-0.1,0-0.1,0-0.2,0V5.6
			c1.1-0.1,4.6-0.2,7-0.2c5.1,0,7.9,2.7,7.9,10.9C36.5,24.6,34.2,28.5,28.7,28.5z M29.4,8.7c-0.5,0-2.4,0-2.6,0v16.4
			c0.2,0,2.2,0,2.4,0c2.1,0,3.1-2.5,3.1-8.9C32.3,10.3,31.1,8.7,29.4,8.7L29.4,8.7z M14.2,6.3V5.6c0,0-2.6,0-4.7,0
			C9.1,6.2,9,6.8,9,7.5v16.2c0,1-0.7,1.9-1.8,1.9c-0.1,0-0.2,0-0.2,0C6,25.7,5.2,25,5,24c0-0.1,0-0.2,0-0.3V7.5
			C4.9,6.9,5.4,6.4,5.9,6.3c0.1,0,0.1,0,0.2,0V5.6H1.7C1.2,6.1,1,6.8,1,7.5V24c0,0.6,0,1.3-0.2,1.9c1.5,1.9,3.8,3,6.2,2.9
			c2.4-0.1,4.8-0.2,7.2-0.5v-0.6c-0.5,0.1-1-0.3-1.1-0.9v-0.1V7.4c0-0.6,0.4-1,0.9-1.1C14.1,6.3,14.1,6.3,14.2,6.3z"/>
		<path id="Path" class="st0" d="M56.7,13.9L56.3,14c-0.2-0.4-0.5-0.6-1.2-0.6h-2.6v8.5c0,0.5,0.3,0.7,0.7,0.7v0.5h-3.7v-0.4
			c0.3,0,0.6-0.2,0.7-0.5c0-0.1,0-0.1,0-0.2v-8.5h-2.5c-0.8,0-1.1,0.2-1.3,0.6L46,13.9l0.5-2.5c0.3,0.1,0.7,0.1,1,0.1h7.9
			c0.3,0,0.6,0,0.9-0.1L56.7,13.9z"/>
		<path id="Path_00000044159120742202716280000010518479593097396619_" class="st0" d="M69,23.1h-3.7v-0.5c0.4,0,0.6-0.2,0.6-0.7
			v-4.1h-4.6v4c0,0.5,0.2,0.7,0.6,0.7V23h-3.7v-0.4c0.4,0,0.6-0.2,0.6-0.7v-9.4c0-0.5-0.2-0.6-0.6-0.6v-0.5H62V12
			c-0.4,0-0.6,0.2-0.6,0.6V16H66v-3.4c0-0.5-0.2-0.6-0.6-0.6v-0.5h3.7V12c-0.4,0-0.6,0.2-0.6,0.6V22c0,0.5,0.2,0.7,0.6,0.7L69,23.1z
			"/>
		<path id="Path_00000128481014904039522890000004935531908744668860_" class="st0" d="M79.9,20.6l-0.6,2.6c-0.3,0-0.6-0.1-0.9-0.1
			h-7.2v-0.4c0.4,0,0.6-0.2,0.6-0.7v-9.3c0-0.5-0.2-0.7-0.6-0.7v-0.5h7.3c0.3,0,0.6,0,0.9-0.1l0.5,2.5L79.4,14
			c-0.2-0.4-0.6-0.7-1-0.6h-4.3v2.3H78c0.4,0,0.6-0.2,0.6-0.5H79v3h-0.4c0-0.3-0.2-0.6-0.6-0.6h-3.8v3.5h4.2
			c0.5,0.1,0.9-0.2,1.1-0.7L79.9,20.6z"/>
		<path id="Path_00000148636629737108740990000010384378305954853537_" class="st0" d="M96.7,12c-0.4,0-0.6,0.2-0.6,0.7v7.6
			c0,0.4,0.1,0.8,0.2,1.1c-1.3,1.2-3,1.9-4.8,2c-1.8,0-3.6-0.7-4.9-2c0.1-0.4,0.2-0.7,0.2-1.1v-7.5c0-0.5-0.2-0.8-0.6-0.8v-0.5h3.7
			V12c-0.4,0-0.7,0.2-0.7,0.8v7c0,0.9,0.8,1.6,2.4,1.6s2.3-0.8,2.3-1.5v-7.1c0-0.5-0.2-0.7-0.6-0.7v-0.5h3.5L96.7,12z"/>
		<path id="Path_00000114796699335290253560000016610250319125852552_" class="st0" d="M109.4,12c-0.3,0-0.6,0.2-0.6,0.5
			c0,0,0,0,0,0.1v10.5H107c-0.1-0.3-0.2-0.5-0.4-0.8l-4.9-7l0,0v6.6c0,0.3,0.2,0.6,0.5,0.7h0.1V23h-3.5v-0.4c0.4,0,0.6-0.2,0.6-0.7
			v-9.4c0-0.3-0.2-0.6-0.5-0.6h-0.1v-0.5h3c0.1,0.3,0.2,0.6,0.4,0.8l4.4,6.2l0,0v-5.9c0-0.3-0.2-0.6-0.6-0.6v-0.5h3.5L109.4,12z"/>
		<path id="Path_00000142880045851899498710000002270251301307007935_" class="st0" d="M115.1,23.1h-3.7v-0.5c0.4,0,0.6-0.2,0.6-0.7
			v-9.3c0-0.5-0.2-0.7-0.6-0.7v-0.5h3.7V12c-0.3,0-0.6,0.2-0.6,0.5v0.1V22c0,0.5,0.2,0.7,0.6,0.7V23.1z"/>
		<path id="Path_00000088099612301492429220000014124681448377649060_" class="st0" d="M128.1,12c-0.3,0-0.6,0.2-0.8,0.8l-3.1,8.9
			c-0.1,0.2-0.1,0.4-0.2,0.7c0,0.1,0.1,0.3,0.2,0.3l0,0v0.5h-3.9v-0.4c0.2,0,0.3-0.1,0.3-0.2l0,0c-0.1-0.3-0.1-0.6-0.3-0.9l-3-8.5
			c-0.2-0.6-0.4-0.9-0.8-0.9v-0.5h3.7V12c-0.3,0-0.4,0.2-0.4,0.4c0,0.2,0,0.3,0.1,0.5l2.5,7.7l0,0l2.3-7.6c0.1-0.2,0.1-0.4,0.1-0.6
			c0-0.2-0.1-0.4-0.4-0.4v-0.5h3.5L128.1,12z"/>
		<path id="Path_00000108309865466070630590000008396966648043282616_" class="st0" d="M138.4,20.6l-0.6,2.6c-0.3,0-0.6-0.1-0.9-0.1
			h-7.2v-0.4c0.4,0,0.6-0.2,0.6-0.7v-9.3c0-0.5-0.2-0.7-0.6-0.7v-0.5h7.3c0.3,0,0.6,0,0.9-0.1l0.5,2.5L138,14
			c-0.2-0.4-0.6-0.7-1-0.6h-4.2v2.3h3.9c0.4,0,0.6-0.2,0.6-0.5h0.4v3h-0.4c0-0.3-0.2-0.6-0.6-0.6h-3.9v3.5h4.2
			c0.5,0.1,0.9-0.2,1.1-0.7L138.4,20.6z"/>
		<path id="Shape_00000107553757249147593570000007064162376160909975_" class="st0" d="M149.9,23.1h-3.2c-0.7-1.4-1.3-2.8-1.8-4.3
			h-0.5c-0.4,0-0.8,0-1.2,0V22c0,0.5,0.2,0.7,0.6,0.7v0.5h-3.6v-0.5c0.3,0,0.6-0.2,0.6-0.5v-0.1v-9.4c0-0.3-0.2-0.6-0.5-0.6
			c0,0-0.1,0-0.2,0v-0.5c1.2,0,3.2-0.1,4.1-0.1c3.3,0,5.3,0.9,5.3,3.5c0,1.5-1,2.9-2.4,3.4c0.5,1.4,1.1,2.7,1.9,3.9
			c0.2,0.3,0.5,0.5,0.9,0.4V23.1z M144.5,13.3c-0.4,0-0.9,0-1.3,0v3.4h1.4c1.8,0,2.5-0.8,2.5-1.8S146.6,13.3,144.5,13.3z"/>
		<path id="Path_00000000917368912736170590000002994665481794992770_" class="st0" d="M155.6,23.4c-0.9,0-1.8-0.1-2.7-0.3
			c-0.3,0-0.6,0.1-0.9,0.2l-0.5-3.4l0.6-0.1c0.3,0.8,1.1,1.6,3.3,1.6c1.8,0,2.4-0.7,2.4-1.5c0-0.6-0.5-1.1-1.4-1.4l-1.9-0.7
			c-1.5-0.4-2.6-1.7-2.6-3.3c0-2.2,1.9-3.2,4.1-3.2c0.8,0,1.6,0.1,2.4,0.2c0.3,0,0.5,0,0.8-0.1l0.4,2.9l-0.6,0.1
			c-0.7-0.9-1.7-1.4-2.8-1.2c-1.5,0-1.8,0.6-1.8,1.2c0,0.6,0.4,0.9,1.3,1.2l2,0.8c1.6,0.4,2.6,1.9,2.6,3.5
			C160.2,22,158.4,23.4,155.6,23.4z"/>
		<path id="Path_00000023262697763563846930000003388290799638533766_" class="st0" d="M165.7,23.1H162v-0.5c0.4,0,0.6-0.2,0.6-0.7
			v-9.3c0-0.5-0.2-0.7-0.6-0.7v-0.5h3.7V12c-0.3,0-0.6,0.2-0.6,0.5v0.1V22c0,0.5,0.2,0.7,0.6,0.7V23.1z"/>
		<path id="Path_00000116232259901064235930000000240445262219464116_" class="st0" d="M178.2,13.9l-0.4,0.2
			c-0.2-0.4-0.5-0.6-1.2-0.6H174V22c0,0.5,0.3,0.7,0.7,0.7v0.5H171v-0.4c0.3,0,0.6-0.2,0.7-0.5c0-0.1,0-0.1,0-0.2v-8.5H169
			c-0.8,0-1.1,0.2-1.3,0.6l-0.4-0.2l0.5-2.5c0.3,0.1,0.7,0.1,1,0.1h7.9c0.3,0,0.6,0,0.9-0.1L178.2,13.9z"/>
		<path id="Path_00000025441854959321229430000008332141833008480411_" class="st0" d="M190.1,12c-0.4,0-0.6,0.2-1,0.8l-3.2,5.6V22
			c0,0.5,0.2,0.7,0.6,0.7v0.5h-3.7v-0.4c0.4,0,0.6-0.2,0.6-0.7v-3.7l-3.2-5.6c-0.3-0.6-0.6-0.8-1-0.8v-0.5h3.9V12
			c-0.2,0-0.3,0.1-0.3,0.3l0,0c0,0.1,0.1,0.2,0.1,0.3l1.8,3.5l0,0l1.8-3.5c0.1-0.1,0.1-0.3,0.1-0.4c0-0.2,0-0.3-0.3-0.3v-0.5h3.6V12
			H190.1z"/>
		<path id="Shape_00000101062851826304488320000004128901954451301301_" class="st0" d="M202,23.4c-3.1,0.1-5.8-2.3-5.9-5.5
			c0-0.2,0-0.4,0-0.6c0-3.2,2.6-5.9,5.9-5.9c3.2,0,5.9,2.6,5.9,5.9c0.2,3.1-2.1,5.8-5.3,6.1C202.4,23.4,202.2,23.4,202,23.4z
			 M202,13.3c-1.8,0-3.3,1.4-3.3,4s1.5,4.1,3.3,4.1s3.4-1.4,3.4-4S203.8,13.3,202,13.3z"/>
		<path id="Path_00000063611788709751599640000005322594071375348912_" class="st0" d="M218.5,13.9l-0.4,0.1
			c-0.2-0.4-0.7-0.6-1.1-0.6h-4.1v2.4h3.9c0.4,0,0.6-0.2,0.6-0.5h0.4v3h-0.4c0-0.3-0.2-0.6-0.6-0.6H213v4.1c0,0.5,0.3,0.7,0.7,0.7
			V23H210v-0.4c0.4,0,0.6-0.2,0.6-0.7v-9.3c0-0.3-0.2-0.6-0.5-0.7H210v-0.5h7.1c0.4,0,0.7,0,1.1-0.1L218.5,13.9z"/>
		<path id="Path_00000116194350729414620320000016290313830844200837_" class="st0" d="M235.2,13.9l-0.4,0.2
			c-0.2-0.4-0.5-0.6-1.2-0.6H231V22c0,0.5,0.3,0.7,0.7,0.7v0.5H228v-0.4c0.3,0,0.6-0.2,0.7-0.5c0-0.1,0-0.1,0-0.2v-8.5h-2.5
			c-0.8,0-1.1,0.2-1.3,0.6l-0.4-0.2l0.5-2.5c0.3,0.1,0.7,0.1,1,0.1h7.9c0.3,0,0.6,0,0.9-0.1L235.2,13.9z"/>
		<path id="Path_00000039129558896796111360000011511973404951158182_" class="st0" d="M245.6,20.6l-0.6,2.6c-0.3,0-0.6-0.1-0.9-0.1
			h-7.2v-0.4c0.4,0,0.6-0.2,0.6-0.7v-9.3c0-0.5-0.2-0.7-0.6-0.7v-0.5h7.3c0.3,0,0.6,0,0.9-0.1l0.5,2.5l-0.4,0.1
			c-0.2-0.4-0.6-0.7-1-0.6H240v2.3h3.9c0.4,0,0.6-0.2,0.6-0.5h0.4v3h-0.4c0-0.3-0.2-0.6-0.6-0.6H240v3.5h4.2
			c0.5,0.1,0.9-0.2,1.1-0.7L245.6,20.6z"/>
		<path id="Path_00000152950953737346713500000006393538205475718571_" class="st0" d="M257.4,23.1h-4v-0.5c0.3,0,0.4-0.1,0.4-0.3
			c0-0.1-0.1-0.3-0.1-0.4l-1.6-2.8l0,0l-1.5,2.8c-0.1,0.1-0.1,0.2-0.1,0.3c0,0.2,0.1,0.3,0.3,0.3V23H247v-0.5c0.4,0,0.7-0.1,1-0.7
			l2.8-4.7l-2.8-4.5c-0.4-0.6-0.6-0.8-1-0.8v-0.5h4V12c-0.3,0-0.4,0.1-0.4,0.2c0,0.1,0.1,0.3,0.2,0.4l1.6,2.8l0,0l1.5-2.9
			c0.1-0.1,0.1-0.2,0.1-0.3c0-0.2-0.1-0.2-0.3-0.2v-0.5h3.6V12c-0.4,0-0.7,0.2-1,0.8l-2.8,4.7l2.8,4.6c0.2,0.4,0.6,0.7,1,0.6
			L257.4,23.1z"/>
		<path id="Shape_00000115480870498808623940000000054673833248452225_" class="st0" d="M270.1,23.1h-3.7v-0.5
			c0.3,0,0.4-0.2,0.4-0.4c0-0.1,0-0.3-0.1-0.4l-0.2-0.7c-0.7,0.1-1.5,0.2-2.2,0.2c-0.7,0-1.5-0.1-2.2-0.2l-0.2,0.8
			c0,0.1,0,0.3,0,0.4c0,0.2,0.1,0.3,0.5,0.3v0.5h-3.5v-0.5c0.3,0,0.5-0.1,0.8-0.8l3.1-9.1c0.1-0.1,0.1-0.3,0.1-0.5s-0.1-0.3-0.3-0.3
			v-0.5h3.9V12c-0.2,0-0.3,0.1-0.3,0.2l0,0c0,0.2,0.1,0.4,0.1,0.5l3.2,9.1c0.2,0.5,0.5,0.7,0.7,0.7L270.1,23.1z M264.3,14.1
			L264.3,14.1l-1.5,5.2c0.5,0.1,1.1,0.2,1.6,0.2s1.1-0.1,1.6-0.2L264.3,14.1z"/>
		<path id="Path_00000102520741213574193020000015983898716597464970_" class="st0" d="M275.7,23.4c-0.9,0-1.8-0.1-2.7-0.3
			c-0.3,0-0.6,0.1-0.9,0.2l-0.5-3.4l0.5-0.1c0.3,0.8,1.1,1.6,3.3,1.6c1.8,0,2.4-0.7,2.4-1.5c0-0.6-0.5-1.1-1.4-1.4l-1.9-0.7
			c-1.5-0.4-2.6-1.7-2.6-3.3c0-2.2,1.9-3.2,4.1-3.2c0.8,0,1.6,0.1,2.4,0.2c0.3,0,0.5,0,0.8-0.1l0.4,2.9l-0.6,0.1
			c-0.6-0.9-1.7-1.4-2.8-1.3c-1.5,0-1.8,0.6-1.8,1.2c0,0.6,0.4,0.9,1.3,1.2l2,0.8c1.5,0.5,2.6,1.9,2.6,3.5
			C280.2,22,278.6,23.4,275.7,23.4z"/>
		<path id="Shape_00000056394480352082283140000013734502025907011773_" class="st0" d="M297.5,23.1h-3.7v-0.5
			c0.3,0,0.4-0.2,0.4-0.4c0-0.1,0-0.3-0.1-0.4l-0.2-0.7c-0.7,0.1-1.5,0.2-2.2,0.2c-0.7,0-1.5-0.1-2.2-0.2l-0.2,0.8
			c0,0.1,0,0.3,0,0.4c0,0.2,0.1,0.3,0.5,0.3v0.5h-3.5v-0.5c0.3,0,0.5-0.1,0.8-0.8l3.1-9.1c0.1-0.1,0.1-0.3,0.1-0.5s-0.1-0.3-0.3-0.3
			v-0.5h3.9V12c-0.2,0-0.3,0.1-0.3,0.2l0,0c0,0.2,0.1,0.4,0.1,0.5l3.2,9.1c0.2,0.5,0.5,0.7,0.7,0.7L297.5,23.1z M291.6,14.1
			L291.6,14.1l-1.5,5.2c0.5,0.1,1.1,0.2,1.6,0.2s1.1-0.1,1.6-0.2L291.6,14.1z"/>
		<path id="Path_00000170982149672893568900000001118548282310294154_" class="st0" d="M307.7,13.9l-0.4,0.2
			c-0.2-0.4-0.5-0.6-1.2-0.6h-2.6V22c0,0.5,0.3,0.7,0.7,0.7v0.5h-3.7v-0.4c0.3,0,0.6-0.2,0.7-0.5c0-0.1,0-0.1,0-0.2v-8.5h-2.5
			c-0.8,0-1.1,0.2-1.3,0.6L297,14l0.5-2.5c0.3,0.1,0.7,0.1,1,0.1h7.8c0.3,0,0.6,0,0.9-0.1L307.7,13.9z"/>
		<path id="Shape_00000082358604372600548840000012769150775147569546_" class="st0" d="M318.1,23.2c-1.5,0-3.3-0.1-4.3-0.1v-0.5
			c0.3,0,0.6-0.2,0.6-0.5V22v-9.4c0-0.5-0.2-0.7-0.6-0.7v-0.5c1.1,0,2.6-0.1,4.4-0.1c4.4,0,6.1,2,6.1,5.8
			C324.4,20.6,322.7,23.2,318.1,23.2z M318.1,13.3c-0.5,0-0.9,0-1.2,0v7.9c0.3,0,0.8,0,1.2,0c2.5,0,3.8-1.6,3.8-4.1
			c0.2-1.9-1.3-3.6-3.2-3.8C318.5,13.3,318.3,13.3,318.1,13.3z"/>
		<path id="Shape_00000101103299895550310650000006046863970646741659_" class="st0" d="M336.8,23.1h-3.7v-0.5
			c0.3,0,0.4-0.2,0.4-0.4c0-0.1,0-0.3-0.1-0.4l-0.2-0.7c-0.7,0.1-1.5,0.2-2.2,0.2s-1.5-0.1-2.2-0.2l-0.2,0.8c0,0.1,0,0.3,0,0.4
			c0,0.2,0.1,0.3,0.5,0.3v0.5h-3.5v-0.5c0.3,0,0.5-0.1,0.8-0.8l3.1-9.1c0.1-0.1,0.1-0.3,0.1-0.5s-0.1-0.3-0.3-0.3v-0.5h3.9V12
			c-0.2,0-0.3,0.1-0.3,0.2l0,0c0,0.2,0.1,0.4,0.1,0.5l3.2,9.1c0.2,0.5,0.5,0.7,0.7,0.7L336.8,23.1z M330.9,14.1L330.9,14.1l-1.5,5.2
			c0.5,0.1,1.1,0.2,1.6,0.2s1.1-0.1,1.6-0.2L330.9,14.1z"/>
		<path id="Path_00000062886257025288283440000001691489181717933711_" class="st0" d="M347.1,20.6l-0.6,2.6
			c-0.4-0.1-0.7-0.1-1.1-0.1h-7.1v-0.5c0.4,0,0.6-0.2,0.6-0.7v-9.3c0-0.3-0.2-0.6-0.5-0.7h-0.1v-0.5h3.7V12c-0.4,0-0.7,0.3-0.7,0.6
			v0.1v8.5h4.3c0.5,0.1,0.9-0.2,1.1-0.6H347.1L347.1,20.6z"/>
		<path id="Path_00000053519908080519756090000011801065303530520204_" class="st0" d="M357.7,20.6l-0.6,2.6
			c-0.4-0.1-0.7-0.1-1.1-0.1h-7.1v-0.5c0.4,0,0.6-0.2,0.6-0.7v-9.3c0-0.3-0.2-0.6-0.5-0.7h-0.1v-0.5h3.7V12c-0.4,0-0.7,0.3-0.7,0.6
			v0.1v8.5h4.3c0.5,0.1,0.9-0.2,1.1-0.6H357.7L357.7,20.6z"/>
		<path id="Shape_00000178199464598162563400000009568769929685540763_" class="st0" d="M370.2,23.1h-3.7v-0.5
			c0.3,0,0.4-0.2,0.4-0.4c0-0.1,0-0.3-0.1-0.4l-0.2-0.7c-0.7,0.1-1.5,0.2-2.2,0.2c-0.7,0-1.5-0.1-2.2-0.2l-0.2,0.8
			c0,0.1,0,0.3,0,0.4c0,0.2,0.1,0.3,0.5,0.3v0.5H359v-0.5c0.3,0,0.5-0.1,0.8-0.8l3.1-9.1c0.1-0.1,0.1-0.3,0.1-0.5s-0.1-0.3-0.3-0.3
			v-0.5h3.9V12c-0.2,0-0.3,0.1-0.3,0.2l0,0c0,0.2,0.1,0.4,0.1,0.5l3.2,9.1c0.2,0.5,0.5,0.7,0.7,0.7L370.2,23.1z M364.3,14.1
			L364.3,14.1l-1.5,5.2c0.5,0.1,1.1,0.2,1.6,0.2s1.1-0.1,1.6-0.2L364.3,14.1z"/>
		<path id="Path_00000084512381184032243510000013486016741508490137_" class="st0" d="M375.7,23.4c-0.9,0-1.8-0.1-2.7-0.3
			c-0.3,0-0.6,0.1-0.9,0.2l-0.5-3.4l0.5-0.1c0.3,0.8,1.1,1.6,3.3,1.6c1.8,0,2.4-0.7,2.4-1.5c0-0.6-0.5-1.1-1.4-1.4l-1.9-0.7
			c-1.5-0.4-2.6-1.7-2.6-3.3c0-2.2,1.9-3.2,4.1-3.2c0.8,0,1.6,0.1,2.4,0.2c0.3,0,0.5,0,0.8-0.1l0.4,2.9l-0.6,0.1
			c-0.7-0.9-1.7-1.4-2.8-1.3c-1.5,0-1.8,0.6-1.8,1.2c0,0.6,0.4,0.9,1.3,1.2l2,0.8c1.6,0.4,2.6,1.9,2.6,3.5
			C380.3,22,378.6,23.4,375.7,23.4z"/>
	</g>
</g>
</svg>
